<?xml version="1.0" encoding="utf-8"?>
<!-- Generator: Adobe Illustrator 27.2.0, SVG Export Plug-In . SVG Version: 6.00 Build 0)  -->
<svg version="1.1" id="Layer_1" xmlns="http://www.w3.org/2000/svg" xmlns:xlink="http://www.w3.org/1999/xlink" x="0px" y="0px"
	 viewBox="0 0 1920 1080" style="enable-background:new 0 0 1920 1080;" xml:space="preserve">
<style type="text/css">
	.st0{fill:#FF2C3C;}
	.st1{fill:#FF7866;}
	.st2{fill:#CC0933;}
	.st3{display:none;}
	.st4{display:inline;opacity:0.51;fill:#FF6690;enable-background:new    ;}
	.st5{display:inline;fill:#FF0047;}
	.st6{font-family:'BerlinSansFBDemi-Bold';}
	.st7{font-size:146.6974px;}
</style>
<g id="Layer_1_00000016783694481939661400000014944672638655984278_">
	<g>
		<polygon class="st0" points="851,666.4 851,380.6 603.5,237.7 356,380.6 356,666.4 603.5,809.3 		"/>
		<polygon class="st1" points="356,380.6 851,666.4 603.5,809.3 356,666.4 		"/>
		<polygon class="st2" points="603.5,809.3 603.5,523.5 851,380.6 851,666.4 		"/>
	</g>
</g>
<g id="Layer_3" class="st3">
	<rect x="-40" y="-143" class="st4" width="996" height="1435"/>
</g>
<g id="Layer_2_00000060719085534759290280000005961830230805125812_" class="st3">
	<text transform="matrix(0.8181 0 0 1 896.2368 476.5879)" class="st5 st6 st7">RED BOX</text>
	<text transform="matrix(0.8181 0 0 1 896.2368 659.958)" class="st5 st6 st7">SOFTWARE</text>
</g>
<path class="st0" d="M972.6,498.3c0,0.4-0.4,0.6-1.2,0.8c-1.6,0.3-5.5,0.5-11.9,0.5c-5.4,0-9.1-0.2-11.1-0.5
	c-0.9-0.2-1.4-0.3-1.6-0.4c-0.2-0.2-0.5-0.7-0.9-1.5c-0.6-2-1.5-4.9-2.7-8.8c-1.6-5.1-4.1-12.5-7.6-22.4c-0.7-2-2.5-3.1-5.2-3.3
	c1.2,0.1-0.9,0.2-6.4,0.2c-0.6,0-0.9,1.3-0.9,3.9c0,3.4,0.3,8.6,0.8,15.4s0.8,12,0.8,15.4c0,0.9-0.2,1.4-0.6,1.5
	c-0.6,0-1.2,0.1-1.7,0.2c-2.4,0.2-6.3,0.3-11.4,0.3c-5.9,0-9.5-0.2-10.7-0.5s-1.8-1.1-1.8-2.4c0-5.6,0.2-14,0.7-25.2
	s0.7-19.7,0.7-25.3c0-21.4-0.4-38.1-1.2-50.1l-0.1-1.1c0-0.9,0.6-1.4,2-1.7c1.3-0.3,7.7-0.6,19-0.9c7.7-0.2,13.8-0.3,18.3-0.3
	c9.4,0,17.2,2.6,23.1,7.8c6.8,5.9,10.1,14.4,10.1,25.4c0,7.4-0.9,13.3-2.6,17.7c-1.7,4.4-5,8.7-9.6,12.8c-1,0.8-1.4,1.6-1.4,2.3
	c0,0,2.5,6.3,7.6,19.1C970,489.9,972.6,497,972.6,498.3z M946.5,430.2c0-6.2-1.7-10.5-5-12.8c-2.6-1.8-6.6-2.7-12.1-2.7
	c-3.9,0-6,0.7-6.3,2.2c-0.2,1.7-0.4,6.7-0.4,14.9c0,1.2,0,2.9,0.1,5.2c0,2.3,0.1,4,0.1,5.1c0,0.3,0.7,0.5,2,0.8
	c2.5,0.5,5.2,0.7,8,0.7C941.9,443.4,946.5,439,946.5,430.2z"/>
<path class="st0" d="M1043.2,475.4c0,2.2-0.4,6.2-1.1,12c-0.7,6.3-1.4,10.1-2,11.3c-0.5,1-1.2,1.4-2.1,1.4c-0.4,0-1-0.1-1.9-0.2
	c-3-0.5-11.8-0.8-26.5-0.8c-3.2,0-7.9,0-14.2-0.1s-11-0.1-14.2-0.1c-1.4,0-2.1-0.7-2.1-2.2c0-5.7,0.3-14.2,0.8-25.6
	s0.8-19.9,0.8-25.6c0-5.8-0.2-16.5-0.7-32.3c-0.1-4.1-0.4-10.1-0.7-18.2l-0.1-1.1c-0.1-1.2,0.4-1.7,1.6-1.7c3.1,0,7.7,0.1,13.8,0.3
	c6.2,0.2,10.8,0.3,13.8,0.3s7.6-0.1,13.7-0.3c6.1-0.2,10.6-0.3,13.7-0.3c2.2,0,3.4,1,3.7,3c0.2,1.2,0.5,4.7,1,10.6
	c0.4,5.9,0.7,9.5,0.7,10.7c0,1.1-0.4,1.6-1.2,1.6c-0.2,0-0.7,0-1.3-0.1c-11-1.1-20.9-1.7-29.7-1.7c-2.2,0-3.5,0.6-4,1.9
	c-0.2,0.6-0.3,2.6-0.3,5.8c0,3.4,0.4,5.7,1.2,6.8c0.7,1,2.1,1.4,4,1.4c0.4,0,1.2,0,2.4-0.1s2.2-0.1,3-0.1c5.2,0,10.5-0.2,15.8-0.5
	c0.5,0,1.6-0.2,3.4-0.4c1.4-0.2,2.5-0.3,3.4-0.3c1,0,1.5,0.6,1.5,1.7c0-1.1-0.4,2.8-1.1,11.6c-0.3,4.1-0.5,8.1-0.5,12.2
	c0,1-0.6,1.5-1.8,1.5l-5.6-0.8c-2.4-0.3-7.7-0.5-16.2-0.5h-6.6c-1.7,0-2.7,0.5-3,1.5c0,0.3-0.1,1.8-0.1,4.7c0,3.8,0.2,6.3,0.6,7.4
	c0.7,1.9,3.4,3.1,8,3.4c-0.1,0,2.9,0,9.1,0c2.2,0,5.5-0.2,9.8-0.7c4.3-0.5,7.6-0.7,9.7-0.7C1042.8,472.7,1043.2,473.6,1043.2,475.4z
	"/>
<path class="st0" d="M1132.6,445.2c0,14.9-3.9,27.8-11.7,38.7c-6.9,9.8-16.6,14.9-29.1,15.4c-2.4,0.1-9,0.2-19.8,0.2
	c-2,0-5.1-0.1-9.2-0.2c-4.1-0.2-7.1-0.2-9.2-0.2c-1.2,0-1.8-0.6-1.8-1.7c0-5.6,0.2-13.9,0.5-25.1c0.4-11.2,0.5-19.5,0.5-25.1
	c0-5.8-0.2-14.5-0.5-26.2c-0.4-11.6-0.5-20.3-0.5-26.1c0-1.1,0.6-1.7,1.8-1.9c2.9-0.4,7.8-0.6,14.5-0.6c12.8,0,21,0.2,24.8,0.7
	c9.8,1.2,17.5,4.3,23.1,9.1c5.2,4.6,9.3,10.9,12.4,19.1C1131.1,429,1132.6,437,1132.6,445.2z M1108.8,445.2c0-8.6-2.1-15.5-6.3-21
	c-4.2-5.6-9.8-8.4-16.8-8.4c-6.4,0-9.6,1-9.6,3.1c0,3,0,7.5-0.1,13.5s-0.1,10.5-0.1,13.5c0,2.9,0,7.4,0.1,13.3s0.1,10.3,0.1,13.3
	c0,2.2,3.3,3.3,9.9,3.3c7.2,0,12.8-2.9,16.9-8.7C1106.8,461.5,1108.8,454.2,1108.8,445.2z"/>
<g>
	<path class="st0" d="M1247.5,466.2c0,9.3-2.4,17-7.1,23.2c-5.4,7-15,10.6-28.6,10.6c-1,0-2.5,0-4.5-0.1c-2,0-3.5,0-4.4,0
		c-15.3,0-24.4-0.4-27.3-1.1c-1.2-0.3-1.8-1.1-1.8-2.4c0-5.4,0.3-13.6,0.8-24.6s0.8-19.2,0.8-24.7c0-5.9-0.2-16.9-0.7-33.1
		c-0.1-4.2-0.4-10.4-0.7-18.7l-0.1-1.1c0-1,0.6-1.5,2-1.7c1.3-0.2,6.1-0.3,14.4-0.3c13.2,0,20.9,0.1,23.2,0.2
		c10.2,0.5,17.7,2.5,22.6,6.1c6.4,4.8,9.6,12.9,9.6,24.4c0,3-0.7,6.2-2.2,9.5c-1.1,2.4-2.5,4.8-4.2,7.1c-1.5,2.1-2.3,3-2.3,2.9
		c0,0.4,0.5,0.9,1.6,1.7c2.9,2,5.2,5.2,6.8,9.6C1246.7,457.6,1247.5,461.8,1247.5,466.2z M1220.8,423.5c0-4.4-1.8-7.2-5.3-8.7
		c-2-0.8-5.3-1.1-9.8-1.1s-6.7,0.4-6.7,1.2c0,1-0.1,2.4-0.2,4.4s-0.2,3.4-0.2,4.4c0,5.1,0.4,7.9,1.1,8.5c0.5,0.5,3.1,0.7,7.9,0.7
		C1216.3,432.8,1220.8,429.7,1220.8,423.5z M1222.6,465.9c0-4.6-1.6-7.6-4.7-9.3c-2-1-5.2-1.5-9.7-1.5c-5.3,0-8.2,0.2-8.7,0.7
		s-0.7,3.6-0.7,9.3c0,6,0.3,9.3,0.8,9.9s3.5,0.9,8.9,0.9c4.5,0,7.6-0.4,9.4-1.3C1221.1,473.3,1222.6,470.3,1222.6,465.9z"/>
	<path class="st0" d="M1341.7,445.9c0,15.8-4.1,29-12.4,39.7c-8.4,10.8-19.1,16.3-31.9,16.3s-23.4-5.5-31.9-16.4
		c-8.3-10.7-12.4-23.9-12.4-39.6s4.1-29,12.4-39.7c8.5-11,19.1-16.5,31.9-16.5c12.7,0,23.3,5.5,31.8,16.5
		C1337.5,417,1341.7,430.2,1341.7,445.9z M1318.1,445.7c0-7.6-1.9-14.1-5.7-19.4c-3.9-5.6-9-8.4-15.1-8.4c-5.8,0-10.8,2.9-14.9,8.7
		c-3.9,5.6-5.9,12-5.9,19.2c0,7.7,1.8,14.2,5.5,19.4c3.9,5.4,9,8.1,15.2,8.1c5.8,0,10.8-2.9,14.9-8.6
		C1316.2,459.3,1318.1,453,1318.1,445.7z"/>
	<path class="st0" d="M1419.6,488.9c0,5-0.2,7.9-0.6,8.8c-0.5,1.1-1.9,1.7-4.2,1.7c-0.4,0-1.2,0-2.5,0c-1.2-0.1-2.3-0.1-3.1-0.1
		c-0.9,0-2.1-0.1-3.8-0.2c-1.7-0.1-2.9-0.2-3.8-0.2c-0.7,0-3.6-4.9-8.9-14.6s-8.1-14.6-8.3-14.7c-0.9,0.9-3.9,6-8.9,15.3
		c-4.9,9-7.7,13.6-8.6,13.9c-0.6,0.2-2.1,0.3-4.7,0.3c-8.5,0-12.7-0.5-12.7-1.6s-0.1-2.6-0.2-4.6s-0.2-3.4-0.2-4.4
		c0-6.3,0.3-10,0.9-11.1c0,0,3.5-5.6,10.3-16.6c5.5-8.9,8.3-14,8.3-15.3s-2.8-6.3-8.3-15c-3.5-5.4-6.9-10.9-10.4-16.3
		c-0.4-0.7-0.6-1.7-0.7-3.3c0-1.1,0-2.5,0-4.3c0.1-2.2,0.2-3.4,0.2-3.6c0-1-0.1-2.6-0.2-4.7s-0.2-3.7-0.2-4.7s0.7-1.4,2.2-1.4
		c1,0,2.4,0.1,4.2,0.2c1.9,0.2,3.3,0.2,4.2,0.2c0.8,0,2.1,0,3.7-0.2c1.6-0.1,2.8-0.2,3.6-0.2c0.7,0,3.7,4.9,9,14.8
		c5.4,9.9,8.2,14.8,8.4,14.8c0.8-0.6,3.9-5.8,9.1-15.5c5-9.4,7.9-14.1,8.6-14.1h14.8c1.4,0,2.2,0.4,2.2,1.3V412
		c0,1.3-3.2,7.1-9.6,17.2c-6.4,10.2-9.6,15.6-9.6,16.2c0,0.9,2.8,5.8,8.5,15c6.6,10.7,10.1,16.3,10.4,16.8
		C1419.3,478.5,1419.6,482.4,1419.6,488.9z"/>
</g>
<g>
	<path class="st0" d="M940.9,618.6c0,10.3-3.5,19.1-10.6,26.4c-6.2,6.5-13.8,10.6-22.7,12.4c-0.3,0-0.6,0.1-0.8,0.1
		c-1,0-3.1-3.6-6.3-10.7c-3.3-7.1-4.9-11.5-4.9-13c0-0.6,0.3-0.9,0.9-1.1c6-1.7,10-3.1,11.9-4.3c4.3-2.6,6.5-6.5,6.5-11.7
		c0-3.3-1.4-7-4.2-11c-4.9-6.9-7.5-10.7-8-11.5c-2.9-5.3-4.3-11.1-4.3-17.5c0-9.3,3.5-17,10.5-23.1c5.7-5.1,12.7-8.4,21.1-9.9
		c0.5,0,0.8-0.1,1.1-0.1c0.6,0,1.1,0.6,1.5,1.8c1.1,3.7,3.6,10.4,7.5,20.1c0.1,0.3,0.2,0.6,0.2,0.8c0,0.9-0.4,1.3-1.1,1.3
		c-0.3,0-0.9-0.1-1.7-0.2c-0.8-0.2-1.4-0.2-1.8-0.2c-3,0-5.6,0.8-7.8,2.5c-2.7,1.9-4,4.6-4,8.1c0,3.1,1.5,6.9,4.5,11.4
		c5.3,8.1,8,12.4,8.3,12.8C939.4,607.5,940.9,613,940.9,618.6z"/>
	<path class="st0" d="M1037.5,600.3c0,15.8-4.1,29-12.4,39.7c-8.4,10.8-19.1,16.3-31.9,16.3c-12.8,0-23.4-5.5-31.9-16.4
		c-8.3-10.7-12.4-23.9-12.4-39.6c0-15.7,4.1-29,12.4-39.7c8.5-11,19.1-16.5,31.9-16.5c12.7,0,23.3,5.5,31.8,16.5
		C1033.3,571.4,1037.5,584.7,1037.5,600.3z M1013.9,600.2c0-7.6-1.9-14.1-5.7-19.4c-3.9-5.6-9-8.4-15.1-8.4
		c-5.8,0-10.8,2.9-14.9,8.7c-3.9,5.6-5.9,12-5.9,19.2c0,7.7,1.8,14.2,5.5,19.4c3.9,5.4,9,8.1,15.2,8.1c5.8,0,10.8-2.9,14.9-8.6
		C1012,613.8,1013.9,607.4,1013.9,600.2z"/>
	<path class="st0" d="M1110.9,571.7c0,0.6-0.4,0.8-1.2,0.8c-3.1,0-7.8-0.3-14.1-1c-6.3-0.7-11.1-1-14.2-1c-4,0-6.3,0.2-7,0.5
		c-1.5,0.9-2.3,3.3-2.3,7.3c0,4.8,1,7.5,3,8.2c0.8,0.3,2.1,0.4,3.8,0.4c2.9,0,7.1-0.2,12.8-0.6c5.7-0.4,10-0.6,12.8-0.6
		c1.4,0,2.1,4.5,2.1,13.4c0,7.7-0.2,12.3-0.7,13.5c-0.3,0.9-0.9,1.4-1.7,1.4c0.5,0-0.8-0.2-3.9-0.5c-4.4-0.5-11.1-0.8-20.1-0.8
		c-2.9,0-4.5,0-4.9,0.1c-2.1,0.4-3.2,1.5-3.2,3.3c0,7.2,0.2,15.5,0.7,24.8c0.4,8.5,0.6,12.2,0.6,11.3c0,1.3-1.3,2.1-3.9,2.3
		c0.7-0.1-1.1-0.1-5.5-0.1c-7.7,0-12.7-0.3-15-1c-1.2-0.4-1.8-1.1-1.8-2.4c0-5.6,0.2-14.1,0.5-25.3c0.3-11.3,0.5-19.7,0.5-25.3
		c0-6.7-0.2-15.1-0.7-25.2c-0.7-15.6-1.1-24.1-1.2-25.2l-0.1-0.9c0-1.3,0.6-1.9,1.9-1.9c3.1,0,7.7,0.1,13.9,0.2
		c6.2,0.2,10.8,0.2,14,0.2c3.3,0,8.3-0.3,14.9-0.9c6.6-0.6,11.6-0.9,14.9-0.9c2.1,0,3.2,1,3.5,3.1c0,2.2,0.1,5.4,0.2,9.8
		c0.1,1.1,0.4,3.3,0.8,6.5C1110.7,568,1110.9,570.2,1110.9,571.7z"/>
	<path class="st0" d="M1178.8,570.2c0,1-0.5,1.5-1.4,1.5c-1.6,0-7.8-0.4-18.7-1.1c-0.2,12.8-0.4,21.8-0.4,26.8c0,6,0.2,15,0.6,27
		s0.6,21,0.6,27c0,1-0.2,1.6-0.6,1.8c-0.1,0.1-0.7,0.2-1.7,0.4c-2.5,0.4-6.1,0.6-10.9,0.6c-5.3,0-9.1-0.2-11.2-0.6
		c-1.2-0.3-1.7-1-1.7-2.4c0-6,0.2-14.9,0.6-26.9s0.6-20.9,0.6-26.9c0-3.9-0.2-12.8-0.5-26.4c-8.3,1-14.9,1.5-19.8,1.5
		c-0.7,0-1-0.3-1-0.8c0-0.7,0.3-2.6,0.9-5.8c0.7-3.5,1-5.7,1.1-6.5c0.1-2.4,0.3-4.8,0.4-7.1c0.3-3.8,0.8-5.7,1.5-5.7
		c0.1,0,0.4,0,0.9,0.1c6.7,1.1,16.6,1.6,29.8,1.6c3.7,0,10.6-0.5,20.6-1.4c5.4-0.5,8.1-0.8,8.1-0.8c0.8,0,1.3,0.1,1.4,0.2
		s0.2,0.6,0.2,1.5c0,1.4,0,3.3-0.1,5.7c-0.1,2.7-0.1,4.6-0.1,5.7c0,1.3,0.1,3.1,0.4,5.6C1178.7,567.1,1178.8,569,1178.8,570.2z"/>
	<path class="st0" d="M1295.8,585.8c0,0.2-3.9,10.4-11.6,30.6c-7.8,20.7-12.3,32.3-13.4,34.9c-0.4,0.9-0.6,1.4-0.7,1.5
		c-0.2,0.3-0.6,0.5-1.2,0.7c-1,0.3-4,0.5-8.8,0.5c-4.5,0-7.3-0.2-8.3-0.5c-0.8-0.3-1.3-0.5-1.5-0.6c-0.2-0.2-0.4-0.6-0.8-1.4
		c-0.2-0.6-1.4-4.1-3.5-10.7l-6.8-21.1l-6.9,21.3c-0.7,2.4-1.9,5.9-3.5,10.5c-0.4,0.9-0.7,1.4-0.9,1.6c-0.2,0.2-0.6,0.3-1.4,0.5
		c-1.4,0.3-4.1,0.5-8.1,0.5c-5,0-8-0.2-8.9-0.5c-0.7-0.2-1.3-0.9-1.7-2.2c-16.2-40.8-24.4-62.6-24.4-65.5c0-4.1,0.1-10.1,0.3-18.2
		c0.2-8.1,0.3-14.1,0.3-18.2c0-1.7,0.4-2.5,1.2-2.5c2.4,0,5.9,0.1,10.7,0.4c4.8,0.3,8.4,0.4,10.8,0.4c1,0,1.4,0.5,1.4,1.4
		c0,4.1-0.2,10.2-0.5,18.3c-0.3,8.2-0.5,14.3-0.5,18.3c0,1.5,1.5,6.4,4.5,14.5c2.7,7.3,4.7,12.2,6,14.8c0.6,1.3,1,2,1.2,2
		c0.3,0,1.2-2.4,2.5-7.3c3.9-13.6,5.9-21.7,6-24.2c0.2-4.7,0.2-10.6,0.1-17.8c-0.1-10.4-0.2-16.3-0.2-17.9c0-1,0.1-1.5,0.2-1.7
		s0.6-0.3,1.4-0.5c2.1-0.3,5.8-0.5,10.9-0.5c7.9,0,11.9,0.7,11.9,2.1c0,3.4-0.1,8.7-0.3,15.8c-0.2,6.9-0.3,12.2-0.2,15.8v3.9
		c0,2.6,2.1,10.8,6.4,24.7c1.4,4.8,2.3,7.2,2.6,7.2c0.2,0,0.6-0.7,1.2-2c1.2-2.5,3-7.4,5.6-14.7c2.9-8,4.3-12.8,4.3-14.3
		c0-4.1-0.2-10.2-0.5-18.4s-0.5-14.3-0.5-18.3c0-0.9,0.5-1.4,1.4-1.4c2.4,0,6.1-0.1,11-0.4c4.9-0.3,8.6-0.4,11-0.4
		c0.8,0,1.2,1,1.2,3c0,4,0.1,10,0.3,18C1295.7,575.9,1295.8,581.9,1295.8,585.8z"/>
	<path class="st0" d="M1386.9,651.6c0,0.9-0.5,1.5-1.6,1.9c-1.2,0.4-5.1,0.6-11.6,0.6c-5.9,0-9.7-0.2-11.4-0.6
		c-1.4-0.4-2.3-1.5-2.7-3.4c-1.4-7.3-2.5-11.2-3.3-11.7c-0.7-0.4-6.2-0.5-16.7-0.5c-7,0-10.8,0.2-11.2,0.7c-0.7,0.8-1.5,3.5-2.4,8.1
		c-0.8,4.2-1.7,6.5-2.9,6.8c-1.4,0.4-6.1,0.6-14.2,0.6c-6.3,0-9.5-0.7-9.5-2.2c0-1.3,4.7-17.5,14-48.5c10.1-33.6,15.7-52,16.5-55.4
		c0.5-1.9,1.1-2.9,1.7-2.9c1.1,0,2.8,0.1,5.2,0.4c2.3,0.3,4.1,0.4,5.3,0.4c1.1,0,2.8-0.1,4.9-0.3c2.2-0.2,3.8-0.3,4.9-0.3
		c0.8,0,1.5,0.8,2.2,2.5c2,5.3,8,23.5,17.8,54.7C1382,633.9,1386.9,650.2,1386.9,651.6z M1342.9,582.4c-0.9,2.2-2.3,7.1-4.4,14.5
		c-2.2,7.9-3.4,12.5-3.4,13.9c0,0.9,1.2,1.4,3.7,1.5c1.3,0.1,3.4,0.2,6.3,0.2c2.7,0,4.2-0.4,4.5-1.2c0.1-0.3,0.1-0.6,0.1-1.1
		c0-1.7-1-6.3-2.9-13.8C1345.1,589.1,1343.7,584.4,1342.9,582.4z"/>
	<path class="st0" d="M1467.3,652.7c0,0.4-0.4,0.6-1.2,0.8c-1.6,0.3-5.5,0.5-11.9,0.5c-5.4,0-9.1-0.2-11.1-0.5
		c-0.9-0.2-1.4-0.3-1.6-0.4c-0.2-0.2-0.5-0.7-0.9-1.5c-0.6-2-1.5-4.9-2.7-8.8c-1.6-5.1-4.1-12.5-7.6-22.4c-0.7-2-2.5-3.1-5.2-3.3
		c1.2,0.1-0.9,0.2-6.4,0.2c-0.6,0-0.9,1.3-0.9,3.9c0,3.4,0.3,8.6,0.8,15.4c0.5,6.8,0.8,12,0.8,15.4c0,0.9-0.2,1.4-0.6,1.5
		c-0.6,0-1.2,0.1-1.7,0.2c-2.4,0.2-6.3,0.3-11.4,0.3c-5.9,0-9.5-0.2-10.7-0.5s-1.8-1.1-1.8-2.4c0-5.6,0.2-14,0.7-25.2
		c0.4-11.2,0.7-19.7,0.7-25.3c0-21.4-0.4-38.1-1.2-50.1l-0.1-1.1c0-0.9,0.6-1.4,2-1.7c1.3-0.3,7.7-0.6,19-0.9
		c7.7-0.2,13.8-0.3,18.3-0.3c9.4,0,17.2,2.6,23.1,7.8c6.8,5.9,10.1,14.4,10.1,25.4c0,7.4-0.9,13.3-2.6,17.7s-5,8.7-9.6,12.8
		c-1,0.8-1.4,1.6-1.4,2.3c0,0,2.5,6.3,7.6,19.1C1464.8,644.4,1467.3,651.4,1467.3,652.7z M1441.2,584.6c0-6.2-1.7-10.5-5-12.8
		c-2.6-1.8-6.6-2.7-12.1-2.7c-3.9,0-6,0.7-6.3,2.2c-0.2,1.7-0.4,6.7-0.4,14.9c0,1.2,0,2.9,0.1,5.2c0,2.3,0.1,4,0.1,5.1
		c0,0.3,0.7,0.5,2,0.8c2.5,0.5,5.2,0.7,8,0.7C1436.7,597.8,1441.2,593.4,1441.2,584.6z"/>
	<path class="st0" d="M1538,629.9c0,2.2-0.4,6.2-1.1,12c-0.7,6.3-1.4,10.1-2,11.3c-0.5,1-1.2,1.4-2.1,1.4c-0.4,0-1-0.1-1.9-0.2
		c-3-0.5-11.8-0.8-26.5-0.8c-3.2,0-7.9,0-14.2-0.1c-6.3-0.1-11-0.1-14.2-0.1c-1.4,0-2.1-0.7-2.1-2.2c0-5.7,0.3-14.2,0.8-25.6
		c0.5-11.4,0.8-19.9,0.8-25.6c0-5.8-0.2-16.5-0.7-32.3c-0.1-4.1-0.4-10.1-0.7-18.2l-0.1-1.1c-0.1-1.2,0.4-1.7,1.6-1.7
		c3.1,0,7.7,0.1,13.8,0.3c6.2,0.2,10.8,0.3,13.8,0.3s7.6-0.1,13.7-0.3s10.6-0.3,13.7-0.3c2.2,0,3.4,1,3.7,3c0.2,1.2,0.5,4.7,1,10.6
		c0.4,5.9,0.7,9.5,0.7,10.7c0,1.1-0.4,1.6-1.2,1.6c-0.2,0-0.7,0-1.3-0.1c-11-1.1-20.9-1.7-29.7-1.7c-2.2,0-3.5,0.6-4,1.9
		c-0.2,0.6-0.3,2.6-0.3,5.8c0,3.4,0.4,5.7,1.2,6.8c0.7,1,2.1,1.4,4,1.4c0.4,0,1.2,0,2.4-0.1c1.2-0.1,2.2-0.1,3-0.1
		c5.2,0,10.5-0.2,15.8-0.5c0.5,0,1.6-0.2,3.4-0.4c1.4-0.2,2.5-0.3,3.4-0.3c1,0,1.5,0.6,1.5,1.7c0-1.1-0.4,2.8-1.1,11.6
		c-0.3,4.1-0.5,8.1-0.5,12.2c0,1-0.6,1.5-1.8,1.5l-5.6-0.8c-2.4-0.3-7.7-0.5-16.2-0.5h-6.6c-1.7,0-2.7,0.5-3,1.5
		c0,0.3-0.1,1.8-0.1,4.7c0,3.8,0.2,6.3,0.6,7.4c0.7,1.9,3.4,3.1,8,3.4c-0.1,0,2.9,0,9.1,0c2.2,0,5.5-0.2,9.8-0.7s7.6-0.7,9.7-0.7
		C1537.5,627.1,1538,628.1,1538,629.9z"/>
</g>
</svg>
